<?xml version="1.0" encoding="UTF-8" standalone="no"?>
<svg
   xmlns:dc="http://purl.org/dc/elements/1.1/"
   xmlns:cc="http://creativecommons.org/ns#"
   xmlns:rdf="http://www.w3.org/1999/02/22-rdf-syntax-ns#"
   xmlns:svg="http://www.w3.org/2000/svg"
   xmlns="http://www.w3.org/2000/svg"
   xmlns:xlink="http://www.w3.org/1999/xlink"
   xmlns:sodipodi="http://sodipodi.sourceforge.net/DTD/sodipodi-0.dtd"
   xmlns:inkscape="http://www.inkscape.org/namespaces/inkscape"
   width="700pt"
   height="700pt"
   version="1.1"
   viewBox="0 0 700 700"
   id="svg5125"
   inkscape:version="0.48.4 r9939"
   sodipodi:docname="noun-bouldering-45246.svg">
  <metadata
     id="metadata5265">
    <rdf:RDF>
      <cc:Work
         rdf:about="">
        <dc:format>image/svg+xml</dc:format>
        <dc:type
           rdf:resource="http://purl.org/dc/dcmitype/StillImage" />
        <dc:title></dc:title>
      </cc:Work>
    </rdf:RDF>
  </metadata>
  <sodipodi:namedview
     pagecolor="#ffffff"
     bordercolor="#666666"
     borderopacity="1"
     objecttolerance="10"
     gridtolerance="10"
     guidetolerance="10"
     inkscape:pageopacity="0"
     inkscape:pageshadow="2"
     inkscape:window-width="1536"
     inkscape:window-height="801"
     id="namedview5263"
     showgrid="false"
     inkscape:zoom="0.53942857"
     inkscape:cx="-217.50724"
     inkscape:cy="541.82712"
     inkscape:window-x="-8"
     inkscape:window-y="-8"
     inkscape:window-maximized="1"
     inkscape:current-layer="svg5125" />
  <defs
     id="defs5127">
    <symbol
       id="r"
       overflow="visible">
      <path
         d="m18.766-1.125c-0.96875 0.5-1.9805 0.875-3.0312 1.125-1.043 0.25781-2.1367 0.39062-3.2812 0.39062-3.3984 0-6.0898-0.94531-8.0781-2.8438-1.9922-1.9062-2.9844-4.4844-2.9844-7.7344 0-3.2578 0.99219-5.8359 2.9844-7.7344 1.9883-1.9062 4.6797-2.8594 8.0781-2.8594 1.1445 0 2.2383 0.13281 3.2812 0.39062 1.0508 0.25 2.0625 0.625 3.0312 1.125v4.2188c-0.98047-0.65625-1.9453-1.1406-2.8906-1.4531-0.94922-0.3125-1.9492-0.46875-3-0.46875-1.875 0-3.3516 0.60547-4.4219 1.8125-1.0742 1.1992-1.6094 2.8555-1.6094 4.9688 0 2.1055 0.53516 3.7617 1.6094 4.9688 1.0703 1.1992 2.5469 1.7969 4.4219 1.7969 1.0508 0 2.0508-0.14844 3-0.45312 0.94531-0.3125 1.9102-0.80078 2.8906-1.4688z"
         id="path5130" />
    </symbol>
    <symbol
       id="e"
       overflow="visible">
      <path
         d="m13.734-11.141c-0.4375-0.19531-0.87109-0.34375-1.2969-0.4375-0.41797-0.10156-0.83984-0.15625-1.2656-0.15625-1.2617 0-2.2305 0.40625-2.9062 1.2188-0.67969 0.80469-1.0156 1.9531-1.0156 3.4531v7.0625h-4.8906v-15.312h4.8906v2.5156c0.625-1 1.3438-1.7266 2.1562-2.1875 0.82031-0.46875 1.8008-0.70312 2.9375-0.70312 0.16406 0 0.34375 0.011719 0.53125 0.03125 0.19531 0.011719 0.47656 0.039062 0.84375 0.078125z"
         id="path5133" />
    </symbol>
    <symbol
       id="a"
       overflow="visible">
      <path
         d="m17.641-7.7031v1.4062h-11.453c0.125 1.1484 0.53906 2.0078 1.25 2.5781 0.70703 0.57422 1.7031 0.85938 2.9844 0.85938 1.0312 0 2.082-0.14844 3.1562-0.45312 1.082-0.3125 2.1914-0.77344 3.3281-1.3906v3.7656c-1.1562 0.4375-2.3125 0.76562-3.4688 0.98438-1.1562 0.22656-2.3125 0.34375-3.4688 0.34375-2.7734 0-4.9297-0.70312-6.4688-2.1094-1.5312-1.4062-2.2969-3.3789-2.2969-5.9219 0-2.5 0.75391-4.4609 2.2656-5.8906 1.5078-1.4375 3.582-2.1562 6.2188-2.1562 2.4062 0 4.332 0.73047 5.7812 2.1875 1.4453 1.4492 2.1719 3.3828 2.1719 5.7969zm-5.0312-1.625c0-0.92578-0.27344-1.6719-0.8125-2.2344-0.54297-0.57031-1.25-0.85938-2.125-0.85938-0.94922 0-1.7188 0.26562-2.3125 0.79688s-0.96484 1.2969-1.1094 2.2969z"
         id="path5136" />
    </symbol>
    <symbol
       id="d"
       overflow="visible">
      <path
         d="m9.2188-6.8906c-1.0234 0-1.793 0.17188-2.3125 0.51562-0.51172 0.34375-0.76562 0.85547-0.76562 1.5312 0 0.625 0.20703 1.1172 0.625 1.4688 0.41406 0.34375 0.98828 0.51562 1.7188 0.51562 0.92578 0 1.7031-0.32812 2.3281-0.98438 0.63281-0.66406 0.95312-1.4922 0.95312-2.4844v-0.5625zm7.4688-1.8438v8.7344h-4.9219v-2.2656c-0.65625 0.92969-1.3984 1.6055-2.2188 2.0312-0.82422 0.41406-1.8242 0.625-3 0.625-1.5859 0-2.8711-0.45703-3.8594-1.375-0.99219-0.92578-1.4844-2.1289-1.4844-3.6094 0-1.7891 0.61328-3.1016 1.8438-3.9375 1.2383-0.84375 3.1797-1.2656 5.8281-1.2656h2.8906v-0.39062c0-0.76953-0.30859-1.332-0.92188-1.6875-0.61719-0.36328-1.5703-0.54688-2.8594-0.54688-1.0547 0-2.0312 0.10547-2.9375 0.3125-0.89844 0.21094-1.7305 0.52344-2.5 0.9375v-3.7344c1.0391-0.25 2.0859-0.44141 3.1406-0.57812 1.0625-0.13281 2.125-0.20312 3.1875-0.20312 2.7578 0 4.75 0.54688 5.9688 1.6406 1.2266 1.0859 1.8438 2.8555 1.8438 5.3125z"
         id="path5139" />
    </symbol>
    <symbol
       id="c"
       overflow="visible">
      <path
         d="m7.7031-19.656v4.3438h5.0469v3.5h-5.0469v6.5c0 0.71094 0.14062 1.1875 0.42188 1.4375s0.83594 0.375 1.6719 0.375h2.5156v3.5h-4.1875c-1.9375 0-3.3125-0.39844-4.125-1.2031-0.80469-0.8125-1.2031-2.1797-1.2031-4.1094v-6.5h-2.4219v-3.5h2.4219v-4.3438z"
         id="path5142" />
    </symbol>
    <symbol
       id="k"
       overflow="visible">
      <path
         d="m12.766-13.078v-8.2031h4.9219v21.281h-4.9219v-2.2188c-0.66797 0.90625-1.4062 1.5703-2.2188 1.9844s-1.7578 0.625-2.8281 0.625c-1.8867 0-3.4336-0.75-4.6406-2.25-1.2109-1.5-1.8125-3.4258-1.8125-5.7812 0-2.3633 0.60156-4.2969 1.8125-5.7969 1.207-1.5 2.7539-2.25 4.6406-2.25 1.0625 0 2 0.21484 2.8125 0.64062 0.82031 0.42969 1.5664 1.0859 2.2344 1.9688zm-3.2188 9.9219c1.0391 0 1.8359-0.37891 2.3906-1.1406 0.55078-0.76953 0.82812-1.8828 0.82812-3.3438 0-1.457-0.27734-2.5664-0.82812-3.3281-0.55469-0.76953-1.3516-1.1562-2.3906-1.1562-1.043 0-1.8398 0.38672-2.3906 1.1562-0.55469 0.76172-0.82812 1.8711-0.82812 3.3281 0 1.4609 0.27344 2.5742 0.82812 3.3438 0.55078 0.76172 1.3477 1.1406 2.3906 1.1406z"
         id="path5145" />
    </symbol>
    <symbol
       id="j"
       overflow="visible">
      <path
         d="m10.5-3.1562c1.0508 0 1.8516-0.37891 2.4062-1.1406 0.55078-0.76953 0.82812-1.8828 0.82812-3.3438 0-1.457-0.27734-2.5664-0.82812-3.3281-0.55469-0.76953-1.3555-1.1562-2.4062-1.1562-1.0547 0-1.8594 0.38672-2.4219 1.1562-0.55469 0.77344-0.82812 1.8828-0.82812 3.3281 0 1.4492 0.27344 2.5586 0.82812 3.3281 0.5625 0.77344 1.3672 1.1562 2.4219 1.1562zm-3.25-9.9219c0.67578-0.88281 1.4219-1.5391 2.2344-1.9688 0.82031-0.42578 1.7656-0.64062 2.8281-0.64062 1.8945 0 3.4453 0.75 4.6562 2.25 1.207 1.5 1.8125 3.4336 1.8125 5.7969 0 2.3555-0.60547 4.2812-1.8125 5.7812-1.2109 1.5-2.7617 2.25-4.6562 2.25-1.0625 0-2.0078-0.21094-2.8281-0.625-0.8125-0.42578-1.5586-1.0859-2.2344-1.9844v2.2188h-4.8906v-21.281h4.8906z"
         id="path5148" />
    </symbol>
    <symbol
       id="i"
       overflow="visible">
      <path
         d="m0.34375-15.312h4.8906l4.125 10.391 3.5-10.391h4.8906l-6.4375 16.766c-0.64844 1.6953-1.4023 2.8828-2.2656 3.5625-0.86719 0.6875-2 1.0312-3.4062 1.0312h-2.8438v-3.2188h1.5312c0.83203 0 1.4375-0.13672 1.8125-0.40625 0.38281-0.26172 0.67969-0.73047 0.89062-1.4062l0.14062-0.42188z"
         id="path5151" />
    </symbol>
    <symbol
       id="g"
       overflow="visible">
      <path
         d="m2.3594-15.312h4.8906v15.031c0 2.0508-0.49609 3.6172-1.4844 4.7031-0.98047 1.082-2.4062 1.625-4.2812 1.625h-2.4219v-3.2188h0.85938c0.92578 0 1.5625-0.21094 1.9062-0.625 0.35156-0.41797 0.53125-1.2461 0.53125-2.4844zm0-5.9688h4.8906v4h-4.8906z"
         id="path5154" />
    </symbol>
    <symbol
       id="b"
       overflow="visible">
      <path
         d="m9.6406-12.188c-1.0859 0-1.9141 0.39062-2.4844 1.1719-0.57422 0.78125-0.85938 1.9062-0.85938 3.375s0.28516 2.5938 0.85938 3.375c0.57031 0.77344 1.3984 1.1562 2.4844 1.1562 1.0625 0 1.875-0.38281 2.4375-1.1562 0.57031-0.78125 0.85938-1.9062 0.85938-3.375s-0.28906-2.5938-0.85938-3.375c-0.5625-0.78125-1.375-1.1719-2.4375-1.1719zm0-3.5c2.6328 0 4.6914 0.71484 6.1719 2.1406 1.4766 1.418 2.2188 3.3867 2.2188 5.9062 0 2.5117-0.74219 4.4805-2.2188 5.9062-1.4805 1.418-3.5391 2.125-6.1719 2.125-2.6484 0-4.7148-0.70703-6.2031-2.125-1.4922-1.4258-2.2344-3.3945-2.2344-5.9062 0-2.5195 0.74219-4.4883 2.2344-5.9062 1.4883-1.4258 3.5547-2.1406 6.2031-2.1406z"
         id="path5157" />
    </symbol>
    <symbol
       id="h"
       overflow="visible">
      <path
         d="m17.75-9.3281v9.3281h-4.9219v-7.1094c0-1.3438-0.03125-2.2656-0.09375-2.7656s-0.16797-0.86719-0.3125-1.1094c-0.1875-0.3125-0.44922-0.55469-0.78125-0.73438-0.32422-0.17578-0.69531-0.26562-1.1094-0.26562-1.0234 0-1.8242 0.39844-2.4062 1.1875-0.58594 0.78125-0.875 1.8711-0.875 3.2656v7.5312h-4.8906v-21.281h4.8906v8.2031c0.73828-0.88281 1.5195-1.5391 2.3438-1.9688 0.83203-0.42578 1.75-0.64062 2.75-0.64062 1.7695 0 3.1133 0.54688 4.0312 1.6406 0.91406 1.0859 1.375 2.6562 1.375 4.7188z"
         id="path5160" />
    </symbol>
    <symbol
       id="f"
       overflow="visible">
      <path
         d="m17.75-9.3281v9.3281h-4.9219v-7.1406c0-1.3203-0.03125-2.2344-0.09375-2.7344s-0.16797-0.86719-0.3125-1.1094c-0.1875-0.3125-0.44922-0.55469-0.78125-0.73438-0.32422-0.17578-0.69531-0.26562-1.1094-0.26562-1.0234 0-1.8242 0.39844-2.4062 1.1875-0.58594 0.78125-0.875 1.8711-0.875 3.2656v7.5312h-4.8906v-15.312h4.8906v2.2344c0.73828-0.88281 1.5195-1.5391 2.3438-1.9688 0.83203-0.42578 1.75-0.64062 2.75-0.64062 1.7695 0 3.1133 0.54688 4.0312 1.6406 0.91406 1.0859 1.375 2.6562 1.375 4.7188z"
         id="path5163" />
    </symbol>
    <symbol
       id="q"
       overflow="visible">
      <path
         d="m12.422-21.281v3.2188h-2.7031c-0.6875 0-1.1719 0.125-1.4531 0.375-0.27344 0.25-0.40625 0.6875-0.40625 1.3125v1.0625h4.1875v3.5h-4.1875v11.812h-4.8906v-11.812h-2.4375v-3.5h2.4375v-1.0625c0-1.6641 0.46094-2.8984 1.3906-3.7031 0.92578-0.80078 2.3672-1.2031 4.3281-1.2031z"
         id="path5166" />
    </symbol>
    <symbol
       id="p"
       overflow="visible">
      <path
         d="m16.547-12.766c0.61328-0.94531 1.3477-1.6719 2.2031-2.1719 0.85156-0.5 1.7891-0.75 2.8125-0.75 1.7578 0 3.0977 0.54688 4.0156 1.6406 0.92578 1.0859 1.3906 2.6562 1.3906 4.7188v9.3281h-4.9219v-7.9844-0.35938c0.007813-0.13281 0.015625-0.32031 0.015625-0.5625 0-1.082-0.16406-1.8633-0.48438-2.3438-0.3125-0.48828-0.82422-0.73438-1.5312-0.73438-0.92969 0-1.6484 0.38672-2.1562 1.1562-0.51172 0.76172-0.77344 1.8672-0.78125 3.3125v7.5156h-4.9219v-7.9844c0-1.6953-0.14844-2.7852-0.4375-3.2656-0.29297-0.48828-0.8125-0.73438-1.5625-0.73438-0.9375 0-1.6641 0.38672-2.1719 1.1562-0.51172 0.76172-0.76562 1.8594-0.76562 3.2969v7.5312h-4.9219v-15.312h4.9219v2.2344c0.60156-0.86328 1.2891-1.5156 2.0625-1.9531 0.78125-0.4375 1.6406-0.65625 2.5781-0.65625 1.0625 0 2 0.25781 2.8125 0.76562 0.8125 0.51172 1.4258 1.2305 1.8438 2.1562z"
         id="path5169" />
    </symbol>
    <symbol
       id="o"
       overflow="visible">
      <path
         d="m2.5781-20.406h5.875l7.4219 14v-14h4.9844v20.406h-5.875l-7.4219-14v14h-4.9844z"
         id="path5172" />
    </symbol>
    <symbol
       id="n"
       overflow="visible">
      <path
         d="m2.1875-5.9688v-9.3438h4.9219v1.5312c0 0.83594-0.007813 1.875-0.015625 3.125-0.011719 1.25-0.015625 2.0859-0.015625 2.5 0 1.2422 0.03125 2.1328 0.09375 2.6719 0.070313 0.54297 0.17969 0.93359 0.32812 1.1719 0.20703 0.32422 0.47266 0.57422 0.79688 0.75 0.32031 0.16797 0.69141 0.25 1.1094 0.25 1.0195 0 1.8203-0.39062 2.4062-1.1719 0.58203-0.78125 0.875-1.8672 0.875-3.2656v-7.5625h4.8906v15.312h-4.8906v-2.2188c-0.74219 0.89844-1.5234 1.5586-2.3438 1.9844-0.82422 0.41406-1.7344 0.625-2.7344 0.625-1.7617 0-3.1055-0.53906-4.0312-1.625-0.92969-1.082-1.3906-2.6602-1.3906-4.7344z"
         id="path5175" />
    </symbol>
    <symbol
       id="m"
       overflow="visible">
      <path
         d="m2.5781-20.406h8.7344c2.5938 0 4.582 0.57812 5.9688 1.7344 1.3945 1.1484 2.0938 2.7891 2.0938 4.9219 0 2.1367-0.69922 3.7812-2.0938 4.9375-1.3867 1.1562-3.375 1.7344-5.9688 1.7344h-3.4844v7.0781h-5.25zm5.25 3.8125v5.7031h2.9219c1.0195 0 1.8047-0.25 2.3594-0.75 0.5625-0.5 0.84375-1.2031 0.84375-2.1094 0-0.91406-0.28125-1.6172-0.84375-2.1094-0.55469-0.48828-1.3398-0.73438-2.3594-0.73438z"
         id="path5178" />
    </symbol>
    <symbol
       id="l"
       overflow="visible">
      <path
         d="m14.719-14.828v3.9844c-0.65625-0.45703-1.3242-0.79688-2-1.0156-0.66797-0.21875-1.3594-0.32812-2.0781-0.32812-1.3672 0-2.4336 0.40234-3.2031 1.2031-0.76172 0.79297-1.1406 1.9062-1.1406 3.3438 0 1.4297 0.37891 2.543 1.1406 3.3438 0.76953 0.79297 1.8359 1.1875 3.2031 1.1875 0.75781 0 1.4844-0.10938 2.1719-0.32812 0.6875-0.22656 1.3203-0.56641 1.9062-1.0156v4c-0.76172 0.28125-1.5391 0.48828-2.3281 0.625-0.78125 0.14453-1.5742 0.21875-2.375 0.21875-2.7617 0-4.9219-0.70703-6.4844-2.125-1.5547-1.4141-2.3281-3.3828-2.3281-5.9062 0-2.5312 0.77344-4.5039 2.3281-5.9219 1.5625-1.4141 3.7227-2.125 6.4844-2.125 0.80078 0 1.5938 0.074219 2.375 0.21875 0.78125 0.13672 1.5547 0.35156 2.3281 0.64062z"
         id="path5181" />
    </symbol>
    <clipPath
       clipPathUnits="userSpaceOnUse"
       id="clipPath5269">
      <rect
         style="fill:#000000"
         id="rect5271"
         width="505.72037"
         height="510.16949"
         x="100.84746"
         y="25.211864" />
    </clipPath>
  </defs>
  <g
     id="g5183"
     clip-path="url(#clipPath5269)"
     transform="matrix(1.2162046,0,0,1.2162046,-81.125711,18.106597)">
    <path
       d="m 321.55,499.91 c 1.0195,9.1836 -5.3945,18.848 -14.254,21.48 l -19.59,5.8281 c -8.8594,2.6328 -17.691,-2.6094 -19.629,-11.641 l -9.7539,-45.543 c -1.9375,-9.0312 3.7969,-14.531 12.738,-12.215 l 30.902,8.0078 c 8.9492,2.3203 17.102,11.73 18.117,20.91 z"
       id="path5185"
       inkscape:connector-curvature="0" />
    <path
       d="m 516.34,252.07 -131.98,5.6211 c -8.3281,0.37109 -16.207,5.2539 -19.945,13.352 l -1.9609,4.2188 -38.398,82.852 c -21.398,-1.3555 -40.324,-7.7266 -53.582,-17.605 -7.5781,-5.5547 -13.652,-12.543 -18.324,-20.574 -2.3281,-4.0039 -4.3008,-8.3164 -5.8203,-12.75 -0.76172,-2.2109 -1.4102,-4.457 -1.9102,-6.6094 -0.25391,-1.0703 -0.46484,-2.1289 -0.61719,-3.0703 l -0.17188,-1.2695 -0.0273,-0.42578 v -0.0625 c 0,-1.8438 -0.58984,-3.6328 -1.043,-5.3945 l 81.395,-46.832 0.93359,-0.53906 c 4.0312,-2.3281 7.2422,-6.1094 8.7695,-10.898 l 33.863,-105.74 c 3.2891,-10.27 -2.3672,-21.258 -12.633,-24.543 -10.27,-3.2891 -21.258,2.3672 -24.543,12.633 l -31.219,97.484 c 0,0 -109.67,45.281 -126.58,60.02 -8.3945,7.3203 -10.434,11.273 -15.539,22.629 -5.1094,11.363 -47.699,106.09 -47.699,106.09 -4.2734,9.4922 -0.47656,20.668 8.6914,25.609 l 88.402,47.602 c 2.9922,1.6055 6.2109,2.375 9.3906,2.375 7.0664,0 13.898,-3.7852 17.488,-10.438 5.1953,-9.6484 1.5859,-21.684 -8.0625,-26.879 l -72.133,-38.84 20.418,-45.395 c 2,3.6836 4.1211,7.3203 6.4297,10.852 11.285,17.348 26.48,32.562 43.742,43.797 17.242,11.324 36.164,18.621 54.66,22.836 18.547,4.1953 39.266,4.7227 49.777,5.1016 14.336,0.51953 38.93,-9.8164 46.09,-30.84 3.457,-10.148 31.539,-100.72 31.539,-100.72 l 113.94,-14.59 c 9.9727,-1.3047 17.543,-10.059 17.109,-20.293 -0.47266,-10.828 -9.625,-19.227 -20.449,-18.766 z"
       id="path5187"
       inkscape:connector-curvature="0" />
    <path
       d="m 243.57,295.75 c 0.0234,0.16797 0.0664,0.33203 0.0859,0.5 -0.0625,-0.47266 -0.0781,-0.52344 -0.0859,-0.5 z"
       id="path5189"
       inkscape:connector-curvature="0" />
    <path
       d="m 574,526.4 c -9.2773,0 -16.801,-7.5195 -16.801,-16.801 v -286.44 l -130.53,-45.965 c -4.5586,-1.6055 -8.2031,-5.0977 -10.008,-9.5742 l -31.746,-78.887 -200.35,-29.301 c -9.1797,-1.3438 -15.527,-9.8789 -14.191,-19.059 1.3438,-9.1836 9.8672,-15.527 19.059,-14.191 l 209.9,30.699 c 5.9141,0.86719 10.922,4.8047 13.156,10.355 l 32.512,80.793 134.58,47.395 c 6.7305,2.3516 11.227,8.7109 11.227,15.84 v 298.34 c 0,9.2773 -7.5234,16.797 -16.801,16.797 z"
       id="path5191"
       inkscape:connector-curvature="0" />
    <path
       d="m 177.11,242.19 c 27.609,1.5625 51.527,-20.957 52.281,-49.254 0.74609,-28.34 -21.547,-52.086 -49.273,-52.383 -27.531,-0.32031 -51.012,23.277 -50.883,51.141 0.11328,26.586 21.383,48.992 47.875,50.496 z"
       id="path5193"
       inkscape:connector-curvature="0" />
    <use
       x="70"
       y="644"
       xlink:href="#r"
       id="use5195"
       width="700"
       height="700" />
    <use
       x="90.550781"
       y="644"
       xlink:href="#e"
       id="use5197"
       width="700"
       height="700" />
    <use
       x="104.35938"
       y="644"
       xlink:href="#a"
       id="use5199"
       width="700"
       height="700" />
    <use
       x="123.34766"
       y="644"
       xlink:href="#d"
       id="use5201"
       width="700"
       height="700" />
    <use
       x="142.24219"
       y="644"
       xlink:href="#c"
       id="use5203"
       width="700"
       height="700" />
    <use
       x="155.62891"
       y="644"
       xlink:href="#a"
       id="use5205"
       width="700"
       height="700" />
    <use
       x="174.61719"
       y="644"
       xlink:href="#k"
       id="use5207"
       width="700"
       height="700" />
    <use
       x="204.41016"
       y="644"
       xlink:href="#j"
       id="use5209"
       width="700"
       height="700" />
    <use
       x="224.45312"
       y="644"
       xlink:href="#i"
       id="use5211"
       width="700"
       height="700" />
    <use
       x="252.45312"
       y="644"
       xlink:href="#g"
       id="use5213"
       width="700"
       height="700" />
    <use
       x="262.04688"
       y="644"
       xlink:href="#b"
       id="use5215"
       width="700"
       height="700" />
    <use
       x="281.28516"
       y="644"
       xlink:href="#h"
       id="use5217"
       width="700"
       height="700" />
    <use
       x="301.21875"
       y="644"
       xlink:href="#d"
       id="use5219"
       width="700"
       height="700" />
    <use
       x="320.11328"
       y="644"
       xlink:href="#f"
       id="use5221"
       width="700"
       height="700" />
    <use
       x="340.04688"
       y="644"
       xlink:href="#f"
       id="use5223"
       width="700"
       height="700" />
    <use
       x="359.98047"
       y="644"
       xlink:href="#d"
       id="use5225"
       width="700"
       height="700" />
    <use
       x="70"
       y="672"
       xlink:href="#q"
       id="use5227"
       width="700"
       height="700" />
    <use
       x="82.183594"
       y="672"
       xlink:href="#e"
       id="use5229"
       width="700"
       height="700" />
    <use
       x="95.992188"
       y="672"
       xlink:href="#b"
       id="use5231"
       width="700"
       height="700" />
    <use
       x="115.22656"
       y="672"
       xlink:href="#p"
       id="use5233"
       width="700"
       height="700" />
    <use
       x="154.15234"
       y="672"
       xlink:href="#c"
       id="use5235"
       width="700"
       height="700" />
    <use
       x="167.53516"
       y="672"
       xlink:href="#h"
       id="use5237"
       width="700"
       height="700" />
    <use
       x="187.46875"
       y="672"
       xlink:href="#a"
       id="use5239"
       width="700"
       height="700" />
    <use
       x="216.20703"
       y="672"
       xlink:href="#o"
       id="use5241"
       width="700"
       height="700" />
    <use
       x="239.64062"
       y="672"
       xlink:href="#b"
       id="use5243"
       width="700"
       height="700" />
    <use
       x="258.87891"
       y="672"
       xlink:href="#n"
       id="use5245"
       width="700"
       height="700" />
    <use
       x="278.8125"
       y="672"
       xlink:href="#f"
       id="use5247"
       width="700"
       height="700" />
    <use
       x="308.49219"
       y="672"
       xlink:href="#m"
       id="use5249"
       width="700"
       height="700" />
    <use
       x="329.01562"
       y="672"
       xlink:href="#e"
       id="use5251"
       width="700"
       height="700" />
    <use
       x="342.82031"
       y="672"
       xlink:href="#b"
       id="use5253"
       width="700"
       height="700" />
    <use
       x="362.05859"
       y="672"
       xlink:href="#g"
       id="use5255"
       width="700"
       height="700" />
    <use
       x="371.65625"
       y="672"
       xlink:href="#a"
       id="use5257"
       width="700"
       height="700" />
    <use
       x="390.64844"
       y="672"
       xlink:href="#l"
       id="use5259"
       width="700"
       height="700" />
    <use
       x="407.24219"
       y="672"
       xlink:href="#c"
       id="use5261"
       width="700"
       height="700" />
  </g>
  <path
     d="m 483.5745,72.880821 c 8.18836,-6.48612 9.85187,-20.10602 3.6989,-30.26988 l -13.59886,-22.48088 c -6.15226,-10.164419 -29.4172,3.26736 -38.33878,8.79731 l -34.0418,10.68671 c -8.92079,5.53009 -7.9316,15.17236 2.19877,21.41717 l 35.01491,21.58048 c 10.1413,6.24869 25.13306,6.05341 33.3144,-0.43391 z"
     id="path5185-5"
     inkscape:connector-curvature="0"
     sodipodi:nodetypes="ccccccccc" />
  <path
     d="m 573.25397,158.40777 c 4.12761,7.81491 -1.8156,19.42819 -13.20698,25.81078 l -23.70301,-0.70995 c -11.39101,6.38327 -29.53126,2.69079 -34.87577,-4.57136 -11.98534,-15.64778 -20.6697,-14.53245 -10.08346,-35.60679 l 44.83686,-6.77222 c 12.9851,-1.9601 26.98096,2.82941 31.10132,10.64311 z"
     id="path5185-5-4"
     inkscape:connector-curvature="0"
     sodipodi:nodetypes="cccccccc" />
  <path
     d="m 624.09168,94.792157 c -6.97225,8.813333 -20.78374,11.685283 -30.69583,6.384613 L 571.47133,89.463137 c -9.91268,-5.299903 -13.0666,-17.38586 -7.01862,-26.853266 5.00931,-6.431844 1.85016,-20.089256 45.90867,-11.673133 5.75443,9.659853 30.69794,22.400637 23.72489,31.207012 z"
     id="path5185-5-8"
     inkscape:connector-curvature="0"
     sodipodi:nodetypes="ccccccc" />
</svg>
