<?xml version="1.0" encoding="UTF-8" standalone="no"?>
<svg
   xmlns:dc="http://purl.org/dc/elements/1.1/"
   xmlns:cc="http://creativecommons.org/ns#"
   xmlns:rdf="http://www.w3.org/1999/02/22-rdf-syntax-ns#"
   xmlns:svg="http://www.w3.org/2000/svg"
   xmlns="http://www.w3.org/2000/svg"
   xmlns:xlink="http://www.w3.org/1999/xlink"
   xmlns:sodipodi="http://sodipodi.sourceforge.net/DTD/sodipodi-0.dtd"
   xmlns:inkscape="http://www.inkscape.org/namespaces/inkscape"
   width="700pt"
   height="700pt"
   version="1.1"
   viewBox="0 0 700 700"
   id="svg4437"
   inkscape:version="0.48.4 r9939"
   sodipodi:docname="noun-bike-1594905.svg">
  <metadata
     id="metadata4577">
    <rdf:RDF>
      <cc:Work
         rdf:about="">
        <dc:format>image/svg+xml</dc:format>
        <dc:type
           rdf:resource="http://purl.org/dc/dcmitype/StillImage" />
        <dc:title></dc:title>
      </cc:Work>
    </rdf:RDF>
  </metadata>
  <sodipodi:namedview
     pagecolor="#ffffff"
     bordercolor="#666666"
     borderopacity="1"
     objecttolerance="10"
     gridtolerance="10"
     guidetolerance="10"
     inkscape:pageopacity="0"
     inkscape:pageshadow="2"
     inkscape:window-width="1536"
     inkscape:window-height="801"
     id="namedview4575"
     showgrid="false"
     inkscape:zoom="0.53942857"
     inkscape:cx="523.51523"
     inkscape:cy="230.7872"
     inkscape:window-x="-8"
     inkscape:window-y="-8"
     inkscape:window-maximized="1"
     inkscape:current-layer="svg4437" />
  <defs
     id="defs4439">
    <symbol
       id="t"
       overflow="visible">
      <path
         d="m18.766-1.125c-0.96875 0.5-1.9805 0.875-3.0312 1.125-1.043 0.25781-2.1367 0.39062-3.2812 0.39062-3.3984 0-6.0898-0.94531-8.0781-2.8438-1.9922-1.9062-2.9844-4.4844-2.9844-7.7344 0-3.2578 0.99219-5.8359 2.9844-7.7344 1.9883-1.9062 4.6797-2.8594 8.0781-2.8594 1.1445 0 2.2383 0.13281 3.2812 0.39062 1.0508 0.25 2.0625 0.625 3.0312 1.125v4.2188c-0.98047-0.65625-1.9453-1.1406-2.8906-1.4531-0.94922-0.3125-1.9492-0.46875-3-0.46875-1.875 0-3.3516 0.60547-4.4219 1.8125-1.0742 1.1992-1.6094 2.8555-1.6094 4.9688 0 2.1055 0.53516 3.7617 1.6094 4.9688 1.0703 1.1992 2.5469 1.7969 4.4219 1.7969 1.0508 0 2.0508-0.14844 3-0.45312 0.94531-0.3125 1.9102-0.80078 2.8906-1.4688z"
         id="path4442" />
    </symbol>
    <symbol
       id="c"
       overflow="visible">
      <path
         d="m13.734-11.141c-0.4375-0.19531-0.87109-0.34375-1.2969-0.4375-0.41797-0.10156-0.83984-0.15625-1.2656-0.15625-1.2617 0-2.2305 0.40625-2.9062 1.2188-0.67969 0.80469-1.0156 1.9531-1.0156 3.4531v7.0625h-4.8906v-15.312h4.8906v2.5156c0.625-1 1.3438-1.7266 2.1562-2.1875 0.82031-0.46875 1.8008-0.70312 2.9375-0.70312 0.16406 0 0.34375 0.011719 0.53125 0.03125 0.19531 0.011719 0.47656 0.039062 0.84375 0.078125z"
         id="path4445" />
    </symbol>
    <symbol
       id="b"
       overflow="visible">
      <path
         d="m17.641-7.7031v1.4062h-11.453c0.125 1.1484 0.53906 2.0078 1.25 2.5781 0.70703 0.57422 1.7031 0.85938 2.9844 0.85938 1.0312 0 2.082-0.14844 3.1562-0.45312 1.082-0.3125 2.1914-0.77344 3.3281-1.3906v3.7656c-1.1562 0.4375-2.3125 0.76562-3.4688 0.98438-1.1562 0.22656-2.3125 0.34375-3.4688 0.34375-2.7734 0-4.9297-0.70312-6.4688-2.1094-1.5312-1.4062-2.2969-3.3789-2.2969-5.9219 0-2.5 0.75391-4.4609 2.2656-5.8906 1.5078-1.4375 3.582-2.1562 6.2188-2.1562 2.4062 0 4.332 0.73047 5.7812 2.1875 1.4453 1.4492 2.1719 3.3828 2.1719 5.7969zm-5.0312-1.625c0-0.92578-0.27344-1.6719-0.8125-2.2344-0.54297-0.57031-1.25-0.85938-2.125-0.85938-0.94922 0-1.7188 0.26562-2.3125 0.79688s-0.96484 1.2969-1.1094 2.2969z"
         id="path4448" />
    </symbol>
    <symbol
       id="k"
       overflow="visible">
      <path
         d="m9.2188-6.8906c-1.0234 0-1.793 0.17188-2.3125 0.51562-0.51172 0.34375-0.76562 0.85547-0.76562 1.5312 0 0.625 0.20703 1.1172 0.625 1.4688 0.41406 0.34375 0.98828 0.51562 1.7188 0.51562 0.92578 0 1.7031-0.32812 2.3281-0.98438 0.63281-0.66406 0.95312-1.4922 0.95312-2.4844v-0.5625zm7.4688-1.8438v8.7344h-4.9219v-2.2656c-0.65625 0.92969-1.3984 1.6055-2.2188 2.0312-0.82422 0.41406-1.8242 0.625-3 0.625-1.5859 0-2.8711-0.45703-3.8594-1.375-0.99219-0.92578-1.4844-2.1289-1.4844-3.6094 0-1.7891 0.61328-3.1016 1.8438-3.9375 1.2383-0.84375 3.1797-1.2656 5.8281-1.2656h2.8906v-0.39062c0-0.76953-0.30859-1.332-0.92188-1.6875-0.61719-0.36328-1.5703-0.54688-2.8594-0.54688-1.0547 0-2.0312 0.10547-2.9375 0.3125-0.89844 0.21094-1.7305 0.52344-2.5 0.9375v-3.7344c1.0391-0.25 2.0859-0.44141 3.1406-0.57812 1.0625-0.13281 2.125-0.20312 3.1875-0.20312 2.7578 0 4.75 0.54688 5.9688 1.6406 1.2266 1.0859 1.8438 2.8555 1.8438 5.3125z"
         id="path4451" />
    </symbol>
    <symbol
       id="d"
       overflow="visible">
      <path
         d="m7.7031-19.656v4.3438h5.0469v3.5h-5.0469v6.5c0 0.71094 0.14062 1.1875 0.42188 1.4375s0.83594 0.375 1.6719 0.375h2.5156v3.5h-4.1875c-1.9375 0-3.3125-0.39844-4.125-1.2031-0.80469-0.8125-1.2031-2.1797-1.2031-4.1094v-6.5h-2.4219v-3.5h2.4219v-4.3438z"
         id="path4454" />
    </symbol>
    <symbol
       id="j"
       overflow="visible">
      <path
         d="m12.766-13.078v-8.2031h4.9219v21.281h-4.9219v-2.2188c-0.66797 0.90625-1.4062 1.5703-2.2188 1.9844s-1.7578 0.625-2.8281 0.625c-1.8867 0-3.4336-0.75-4.6406-2.25-1.2109-1.5-1.8125-3.4258-1.8125-5.7812 0-2.3633 0.60156-4.2969 1.8125-5.7969 1.207-1.5 2.7539-2.25 4.6406-2.25 1.0625 0 2 0.21484 2.8125 0.64062 0.82031 0.42969 1.5664 1.0859 2.2344 1.9688zm-3.2188 9.9219c1.0391 0 1.8359-0.37891 2.3906-1.1406 0.55078-0.76953 0.82812-1.8828 0.82812-3.3438 0-1.457-0.27734-2.5664-0.82812-3.3281-0.55469-0.76953-1.3516-1.1562-2.3906-1.1562-1.043 0-1.8398 0.38672-2.3906 1.1562-0.55469 0.76172-0.82812 1.8711-0.82812 3.3281 0 1.4609 0.27344 2.5742 0.82812 3.3438 0.55078 0.76172 1.3477 1.1406 2.3906 1.1406z"
         id="path4457" />
    </symbol>
    <symbol
       id="i"
       overflow="visible">
      <path
         d="m10.5-3.1562c1.0508 0 1.8516-0.37891 2.4062-1.1406 0.55078-0.76953 0.82812-1.8828 0.82812-3.3438 0-1.457-0.27734-2.5664-0.82812-3.3281-0.55469-0.76953-1.3555-1.1562-2.4062-1.1562-1.0547 0-1.8594 0.38672-2.4219 1.1562-0.55469 0.77344-0.82812 1.8828-0.82812 3.3281 0 1.4492 0.27344 2.5586 0.82812 3.3281 0.5625 0.77344 1.3672 1.1562 2.4219 1.1562zm-3.25-9.9219c0.67578-0.88281 1.4219-1.5391 2.2344-1.9688 0.82031-0.42578 1.7656-0.64062 2.8281-0.64062 1.8945 0 3.4453 0.75 4.6562 2.25 1.207 1.5 1.8125 3.4336 1.8125 5.7969 0 2.3555-0.60547 4.2812-1.8125 5.7812-1.2109 1.5-2.7617 2.25-4.6562 2.25-1.0625 0-2.0078-0.21094-2.8281-0.625-0.8125-0.42578-1.5586-1.0859-2.2344-1.9844v2.2188h-4.8906v-21.281h4.8906z"
         id="path4460" />
    </symbol>
    <symbol
       id="h"
       overflow="visible">
      <path
         d="m0.34375-15.312h4.8906l4.125 10.391 3.5-10.391h4.8906l-6.4375 16.766c-0.64844 1.6953-1.4023 2.8828-2.2656 3.5625-0.86719 0.6875-2 1.0312-3.4062 1.0312h-2.8438v-3.2188h1.5312c0.83203 0 1.4375-0.13672 1.8125-0.40625 0.38281-0.26172 0.67969-0.73047 0.89062-1.4062l0.14062-0.42188z"
         id="path4463" />
    </symbol>
    <symbol
       id="a"
       overflow="visible">
      <path
         d="m9.6406-12.188c-1.0859 0-1.9141 0.39062-2.4844 1.1719-0.57422 0.78125-0.85938 1.9062-0.85938 3.375s0.28516 2.5938 0.85938 3.375c0.57031 0.77344 1.3984 1.1562 2.4844 1.1562 1.0625 0 1.875-0.38281 2.4375-1.1562 0.57031-0.78125 0.85938-1.9062 0.85938-3.375s-0.28906-2.5938-0.85938-3.375c-0.5625-0.78125-1.375-1.1719-2.4375-1.1719zm0-3.5c2.6328 0 4.6914 0.71484 6.1719 2.1406 1.4766 1.418 2.2188 3.3867 2.2188 5.9062 0 2.5117-0.74219 4.4805-2.2188 5.9062-1.4805 1.418-3.5391 2.125-6.1719 2.125-2.6484 0-4.7148-0.70703-6.2031-2.125-1.4922-1.4258-2.2344-3.3945-2.2344-5.9062 0-2.5195 0.74219-4.4883 2.2344-5.9062 1.4883-1.4258 3.5547-2.1406 6.2031-2.1406z"
         id="path4466" />
    </symbol>
    <symbol
       id="g"
       overflow="visible">
      <path
         d="m16.547-12.766c0.61328-0.94531 1.3477-1.6719 2.2031-2.1719 0.85156-0.5 1.7891-0.75 2.8125-0.75 1.7578 0 3.0977 0.54688 4.0156 1.6406 0.92578 1.0859 1.3906 2.6562 1.3906 4.7188v9.3281h-4.9219v-7.9844-0.35938c0.007813-0.13281 0.015625-0.32031 0.015625-0.5625 0-1.082-0.16406-1.8633-0.48438-2.3438-0.3125-0.48828-0.82422-0.73438-1.5312-0.73438-0.92969 0-1.6484 0.38672-2.1562 1.1562-0.51172 0.76172-0.77344 1.8672-0.78125 3.3125v7.5156h-4.9219v-7.9844c0-1.6953-0.14844-2.7852-0.4375-3.2656-0.29297-0.48828-0.8125-0.73438-1.5625-0.73438-0.9375 0-1.6641 0.38672-2.1719 1.1562-0.51172 0.76172-0.76562 1.8594-0.76562 3.2969v7.5312h-4.9219v-15.312h4.9219v2.2344c0.60156-0.86328 1.2891-1.5156 2.0625-1.9531 0.78125-0.4375 1.6406-0.65625 2.5781-0.65625 1.0625 0 2 0.25781 2.8125 0.76562 0.8125 0.51172 1.4258 1.2305 1.8438 2.1562z"
         id="path4469" />
    </symbol>
    <symbol
       id="s"
       overflow="visible">
      <path
         d="m1.5938-15.312h13.359v3.4219l-8.0625 8.3906h8.0625v3.5h-13.688v-3.4219l8.0625-8.3906h-7.7344z"
         id="path4472" />
    </symbol>
    <symbol
       id="r"
       overflow="visible">
      <path
         d="m2.3594-15.312h4.8906v15.312h-4.8906zm0-5.9688h4.8906v4h-4.8906z"
         id="path4475" />
    </symbol>
    <symbol
       id="f"
       overflow="visible">
      <path
         d="m14.719-14.828v3.9844c-0.65625-0.45703-1.3242-0.79688-2-1.0156-0.66797-0.21875-1.3594-0.32812-2.0781-0.32812-1.3672 0-2.4336 0.40234-3.2031 1.2031-0.76172 0.79297-1.1406 1.9062-1.1406 3.3438 0 1.4297 0.37891 2.543 1.1406 3.3438 0.76953 0.79297 1.8359 1.1875 3.2031 1.1875 0.75781 0 1.4844-0.10938 2.1719-0.32812 0.6875-0.22656 1.3203-0.56641 1.9062-1.0156v4c-0.76172 0.28125-1.5391 0.48828-2.3281 0.625-0.78125 0.14453-1.5742 0.21875-2.375 0.21875-2.7617 0-4.9219-0.70703-6.4844-2.125-1.5547-1.4141-2.3281-3.3828-2.3281-5.9062 0-2.5312 0.77344-4.5039 2.3281-5.9219 1.5625-1.4141 3.7227-2.125 6.4844-2.125 0.80078 0 1.5938 0.074219 2.375 0.21875 0.78125 0.13672 1.5547 0.35156 2.3281 0.64062z"
         id="path4478" />
    </symbol>
    <symbol
       id="e"
       overflow="visible">
      <path
         d="m17.75-9.3281v9.3281h-4.9219v-7.1406c0-1.3203-0.03125-2.2344-0.09375-2.7344s-0.16797-0.86719-0.3125-1.1094c-0.1875-0.3125-0.44922-0.55469-0.78125-0.73438-0.32422-0.17578-0.69531-0.26562-1.1094-0.26562-1.0234 0-1.8242 0.39844-2.4062 1.1875-0.58594 0.78125-0.875 1.8711-0.875 3.2656v7.5312h-4.8906v-15.312h4.8906v2.2344c0.73828-0.88281 1.5195-1.5391 2.3438-1.9688 0.83203-0.42578 1.75-0.64062 2.75-0.64062 1.7695 0 3.1133 0.54688 4.0312 1.6406 0.91406 1.0859 1.375 2.6562 1.375 4.7188z"
         id="path4481" />
    </symbol>
    <symbol
       id="q"
       overflow="visible">
      <path
         d="m12.422-21.281v3.2188h-2.7031c-0.6875 0-1.1719 0.125-1.4531 0.375-0.27344 0.25-0.40625 0.6875-0.40625 1.3125v1.0625h4.1875v3.5h-4.1875v11.812h-4.8906v-11.812h-2.4375v-3.5h2.4375v-1.0625c0-1.6641 0.46094-2.8984 1.3906-3.7031 0.92578-0.80078 2.3672-1.2031 4.3281-1.2031z"
         id="path4484" />
    </symbol>
    <symbol
       id="p"
       overflow="visible">
      <path
         d="m17.75-9.3281v9.3281h-4.9219v-7.1094c0-1.3438-0.03125-2.2656-0.09375-2.7656s-0.16797-0.86719-0.3125-1.1094c-0.1875-0.3125-0.44922-0.55469-0.78125-0.73438-0.32422-0.17578-0.69531-0.26562-1.1094-0.26562-1.0234 0-1.8242 0.39844-2.4062 1.1875-0.58594 0.78125-0.875 1.8711-0.875 3.2656v7.5312h-4.8906v-21.281h4.8906v8.2031c0.73828-0.88281 1.5195-1.5391 2.3438-1.9688 0.83203-0.42578 1.75-0.64062 2.75-0.64062 1.7695 0 3.1133 0.54688 4.0312 1.6406 0.91406 1.0859 1.375 2.6562 1.375 4.7188z"
         id="path4487" />
    </symbol>
    <symbol
       id="o"
       overflow="visible">
      <path
         d="m2.5781-20.406h5.875l7.4219 14v-14h4.9844v20.406h-5.875l-7.4219-14v14h-4.9844z"
         id="path4490" />
    </symbol>
    <symbol
       id="n"
       overflow="visible">
      <path
         d="m2.1875-5.9688v-9.3438h4.9219v1.5312c0 0.83594-0.007813 1.875-0.015625 3.125-0.011719 1.25-0.015625 2.0859-0.015625 2.5 0 1.2422 0.03125 2.1328 0.09375 2.6719 0.070313 0.54297 0.17969 0.93359 0.32812 1.1719 0.20703 0.32422 0.47266 0.57422 0.79688 0.75 0.32031 0.16797 0.69141 0.25 1.1094 0.25 1.0195 0 1.8203-0.39062 2.4062-1.1719 0.58203-0.78125 0.875-1.8672 0.875-3.2656v-7.5625h4.8906v15.312h-4.8906v-2.2188c-0.74219 0.89844-1.5234 1.5586-2.3438 1.9844-0.82422 0.41406-1.7344 0.625-2.7344 0.625-1.7617 0-3.1055-0.53906-4.0312-1.625-0.92969-1.082-1.3906-2.6602-1.3906-4.7344z"
         id="path4493" />
    </symbol>
    <symbol
       id="m"
       overflow="visible">
      <path
         d="m2.5781-20.406h8.7344c2.5938 0 4.582 0.57812 5.9688 1.7344 1.3945 1.1484 2.0938 2.7891 2.0938 4.9219 0 2.1367-0.69922 3.7812-2.0938 4.9375-1.3867 1.1562-3.375 1.7344-5.9688 1.7344h-3.4844v7.0781h-5.25zm5.25 3.8125v5.7031h2.9219c1.0195 0 1.8047-0.25 2.3594-0.75 0.5625-0.5 0.84375-1.2031 0.84375-2.1094 0-0.91406-0.28125-1.6172-0.84375-2.1094-0.55469-0.48828-1.3398-0.73438-2.3594-0.73438z"
         id="path4496" />
    </symbol>
    <symbol
       id="l"
       overflow="visible">
      <path
         d="m2.3594-15.312h4.8906v15.031c0 2.0508-0.49609 3.6172-1.4844 4.7031-0.98047 1.082-2.4062 1.625-4.2812 1.625h-2.4219v-3.2188h0.85938c0.92578 0 1.5625-0.21094 1.9062-0.625 0.35156-0.41797 0.53125-1.2461 0.53125-2.4844zm0-5.9688h4.8906v4h-4.8906z"
         id="path4499" />
    </symbol>
    <clipPath
       clipPathUnits="userSpaceOnUse"
       id="clipPath4581">
      <rect
         style="fill:#000000"
         id="rect4583"
         width="575.42371"
         height="358.89832"
         x="62.288136"
         y="97.881355" />
    </clipPath>
  </defs>
  <g
     id="g4501"
     clip-path="url(#clipPath4581)"
     transform="matrix(1.205575,0,0,1.205575,-72.806283,12.573222)">
    <path
       d="m 392.79394,120.74491 c -4.88803,8.49409 -6.79919,15.70225 -7.61286,20.2147 -0.91849,2.87757 -0.50439,14.00746 2.12211,18.46476 2.59939,2.85561 3.33002,3.88251 10.88882,5.16986 16.07211,-6.37587 13.63301,-32.57829 37.87234,-27.69088 l 10.72639,2.17464 15.21156,51.32091 -166.07,0 -8.2266,-27.297 c -1.0508,-3.4492 -3.1836,-6.4688 -6.082,-8.6133 -2.9023,-2.1406 -6.4102,-3.293 -10.016,-3.2891 l -61.602,0 c -0.58203,-0.0312 -1.168,-0.0312 -1.75,0 -4.457,0.23047 -8.6367,2.2227 -11.625,5.5391 -2.9883,3.3164 -4.5352,7.6797 -4.3047,12.137 0.23438,4.457 2.2266,8.6367 5.543,11.625 3.3164,2.9844 7.6797,4.5312 12.137,4.3008 l 49.176,0 5.5977,18.375 -102.02,139.65 c -2.4805,3.3672 -3.6211,7.5352 -3.1914,11.691 0.42578,4.1602 2.3906,8.0117 5.5039,10.801 3.1133,2.7891 7.1562,4.3164 11.336,4.2852 l 68.953,0 c -9.1602,26.188 -33.906,44.797 -63.352,44.797 -37.312,0 -67.199,-29.887 -67.199,-67.199 0,-32.781 23.309,-59.859 54.074,-65.973 5.918,-0.99219 10.863,-5.0586 12.98,-10.672 2.1172,-5.6172 1.0898,-11.938 -2.7031,-16.586 -3.793,-4.6523 -9.7734,-6.9375 -15.703,-5.9922 -0.41016,0.0977 -0.82031,0.21484 -1.2227,0.34766 -46.25,9.1953 -81.027,50.145 -81.027,98.875 0,55.473 45.328,100.8 100.8,100.8 47.781,0 87.934,-33.621 98.176,-78.398 l 47.426,0 c 4.3125,-0.0352 8.4492,-1.7266 11.547,-4.7266 l 135.8,-128.45 5.0742,17.676 c -36.762,15.066 -62.824,51.051 -62.824,93.098 0,55.473 45.328,100.8 100.8,100.8 55.472,0 100.8,-45.328 100.8,-100.8 0,-55.469 -45.328,-100.8 -100.8,-100.8 -1.8242,0 -3.625,0.25391 -5.4258,0.35156 l -34.473,-122.5 c -0.99219,-3.5117 -12.6661,-13.13331 -15.5684,-15.34421 -2.9062,-2.2109 -23.8502,-4.28396 -27.4991,-4.29956 l -21.15375,0.86986 c -10.58536,3.01329 -12.14602,4.97046 -15.88514,9.13347 z M 306.252,224 l 133,0 -103.43,97.824 z m -29.227,19.602 28,92.398 -22.922,0 c -2.5977,-23.238 -13.211,-44.094 -28.875,-59.852 z m 245,36.574 c 35.383,2.0898 63.176,31.086 63.176,67.023 0,37.312 -29.887,67.199 -67.199,67.199 -37.312,0 -67.199,-29.887 -67.199,-67.199 0,-26.969 15.578,-49.996 38.324,-60.723 l 18.375,65.273 c 0.86328,4.6445 3.6406,8.7148 7.6523,11.207 4.0117,2.4922 8.8906,3.1836 13.438,1.8984 4.5469,-1.2852 8.3398,-4.4258 10.457,-8.6523 2.1133,-4.2227 2.3516,-9.1445 0.65234,-13.555 z m -288.92,23.449 c 7.7305,9.0273 12.992,20.102 15.047,32.375 l -38.672,0 z"
       id="path4503"
       inkscape:connector-curvature="0"
       sodipodi:nodetypes="cccccccccccccsccccccccccsscccccsscccccsssscccccccccccccccccsssccscccccccc" />
    <use
       x="70"
       y="644"
       xlink:href="#t"
       id="use4505"
       width="700"
       height="700" />
    <use
       x="90.550781"
       y="644"
       xlink:href="#c"
       id="use4507"
       width="700"
       height="700" />
    <use
       x="104.35938"
       y="644"
       xlink:href="#b"
       id="use4509"
       width="700"
       height="700" />
    <use
       x="123.34766"
       y="644"
       xlink:href="#k"
       id="use4511"
       width="700"
       height="700" />
    <use
       x="142.24219"
       y="644"
       xlink:href="#d"
       id="use4513"
       width="700"
       height="700" />
    <use
       x="155.62891"
       y="644"
       xlink:href="#b"
       id="use4515"
       width="700"
       height="700" />
    <use
       x="174.61719"
       y="644"
       xlink:href="#j"
       id="use4517"
       width="700"
       height="700" />
    <use
       x="204.41016"
       y="644"
       xlink:href="#i"
       id="use4519"
       width="700"
       height="700" />
    <use
       x="224.45312"
       y="644"
       xlink:href="#h"
       id="use4521"
       width="700"
       height="700" />
    <use
       x="252.45312"
       y="644"
       xlink:href="#c"
       id="use4523"
       width="700"
       height="700" />
    <use
       x="266.25781"
       y="644"
       xlink:href="#a"
       id="use4525"
       width="700"
       height="700" />
    <use
       x="285.49609"
       y="644"
       xlink:href="#g"
       id="use4527"
       width="700"
       height="700" />
    <use
       x="314.67188"
       y="644"
       xlink:href="#s"
       id="use4529"
       width="700"
       height="700" />
    <use
       x="330.96875"
       y="644"
       xlink:href="#r"
       id="use4531"
       width="700"
       height="700" />
    <use
       x="340.56641"
       y="644"
       xlink:href="#f"
       id="use4533"
       width="700"
       height="700" />
    <use
       x="357.16406"
       y="644"
       xlink:href="#a"
       id="use4535"
       width="700"
       height="700" />
    <use
       x="376.39844"
       y="644"
       xlink:href="#e"
       id="use4537"
       width="700"
       height="700" />
    <use
       x="70"
       y="672"
       xlink:href="#q"
       id="use4539"
       width="700"
       height="700" />
    <use
       x="82.183594"
       y="672"
       xlink:href="#c"
       id="use4541"
       width="700"
       height="700" />
    <use
       x="95.992188"
       y="672"
       xlink:href="#a"
       id="use4543"
       width="700"
       height="700" />
    <use
       x="115.22656"
       y="672"
       xlink:href="#g"
       id="use4545"
       width="700"
       height="700" />
    <use
       x="154.15234"
       y="672"
       xlink:href="#d"
       id="use4547"
       width="700"
       height="700" />
    <use
       x="167.53516"
       y="672"
       xlink:href="#p"
       id="use4549"
       width="700"
       height="700" />
    <use
       x="187.46875"
       y="672"
       xlink:href="#b"
       id="use4551"
       width="700"
       height="700" />
    <use
       x="216.20703"
       y="672"
       xlink:href="#o"
       id="use4553"
       width="700"
       height="700" />
    <use
       x="239.64062"
       y="672"
       xlink:href="#a"
       id="use4555"
       width="700"
       height="700" />
    <use
       x="258.87891"
       y="672"
       xlink:href="#n"
       id="use4557"
       width="700"
       height="700" />
    <use
       x="278.8125"
       y="672"
       xlink:href="#e"
       id="use4559"
       width="700"
       height="700" />
    <use
       x="308.49219"
       y="672"
       xlink:href="#m"
       id="use4561"
       width="700"
       height="700" />
    <use
       x="329.01562"
       y="672"
       xlink:href="#c"
       id="use4563"
       width="700"
       height="700" />
    <use
       x="342.82031"
       y="672"
       xlink:href="#a"
       id="use4565"
       width="700"
       height="700" />
    <use
       x="362.05859"
       y="672"
       xlink:href="#l"
       id="use4567"
       width="700"
       height="700" />
    <use
       x="371.65625"
       y="672"
       xlink:href="#b"
       id="use4569"
       width="700"
       height="700" />
    <use
       x="390.64844"
       y="672"
       xlink:href="#f"
       id="use4571"
       width="700"
       height="700" />
    <use
       x="407.24219"
       y="672"
       xlink:href="#d"
       id="use4573"
       width="700"
       height="700" />
  </g>
</svg>
