<?xml version="1.0" encoding="UTF-8" standalone="no"?>
<svg
   xmlns:dc="http://purl.org/dc/elements/1.1/"
   xmlns:cc="http://creativecommons.org/ns#"
   xmlns:rdf="http://www.w3.org/1999/02/22-rdf-syntax-ns#"
   xmlns:svg="http://www.w3.org/2000/svg"
   xmlns="http://www.w3.org/2000/svg"
   xmlns:sodipodi="http://sodipodi.sourceforge.net/DTD/sodipodi-0.dtd"
   xmlns:inkscape="http://www.inkscape.org/namespaces/inkscape"
   width="700pt"
   height="700pt"
   version="1.1"
   viewBox="0 0 700 700"
   id="svg3983"
   inkscape:version="0.48.4 r9939"
   sodipodi:docname="headphones.svg">
  <metadata
     id="metadata3991">
    <rdf:RDF>
      <cc:Work
         rdf:about="">
        <dc:format>image/svg+xml</dc:format>
        <dc:type
           rdf:resource="http://purl.org/dc/dcmitype/StillImage" />
        <dc:title></dc:title>
      </cc:Work>
    </rdf:RDF>
  </metadata>
  <defs
     id="defs3989" />
  <sodipodi:namedview
     pagecolor="#ffffff"
     bordercolor="#666666"
     borderopacity="1"
     objecttolerance="10"
     gridtolerance="10"
     guidetolerance="10"
     inkscape:pageopacity="0"
     inkscape:pageshadow="2"
     inkscape:window-width="1536"
     inkscape:window-height="801"
     id="namedview3987"
     showgrid="false"
     inkscape:zoom="0.53942857"
     inkscape:cx="327.6576"
     inkscape:cy="508.15062"
     inkscape:window-x="-8"
     inkscape:window-y="-8"
     inkscape:window-maximized="1"
     inkscape:current-layer="svg3983" />
  <path
     d="m 350.74619,93.498793 c -137.96749,0 -250.38465,112.427897 -250.38465,250.384657 l 0,200.31414 c 0,27.54415 22.53494,50.07908 50.07908,50.07908 l 75.11647,0 c 13.76992,0 27.9217,-11.57293 25.03738,-25.03739 L 225.30653,451.19101 c -2.88432,-13.46446 -10.11802,-31.93411 -29.6352,-45.72753 l -45.23501,-11.49918 0,-50.07907 c 0,-110.4212 89.88867,-200.31416 200.31417,-200.31416 110.4212,0 200.31414,89.88866 200.31414,200.31416 l 0,50.07907 -42.9318,11.49453 c -23.48726,6.28846 -31.52469,35.67493 -34.233,49.17588 l -22.98905,114.59992 c -2.70833,13.50096 11.26747,25.0374 25.0374,25.0374 l 75.11645,0 c 27.54414,0 50.07908,-22.53495 50.07908,-50.07908 l 0,-200.3137 C 601.13952,205.92249 488.71583,93.494602 350.74834,93.494602 z"
     id="path3985"
     inkscape:connector-curvature="0"
     sodipodi:nodetypes="cssssssccssscssssssccc" />
</svg>
